<?xml version="1.0" encoding="UTF-8" standalone="no"?>
<!-- Created with Inkscape (http://www.inkscape.org/) -->

<svg
   width="527.53723"
   height="527.53723"
   viewBox="0 0 527.53723 527.53723"
   version="1.1"
   id="svg1"
   xml:space="preserve"
   xmlns="http://www.w3.org/2000/svg"
   xmlns:svg="http://www.w3.org/2000/svg"><defs
     id="defs1" /><g
     id="layer1"
     style="display:none"
     transform="translate(-1274.806,-407.68365)"><rect
       style="display:inline;opacity:0;fill:#999999;fill-opacity:0.0100756"
       id="rect3"
       width="611.047"
       height="611.047"
       x="743.6131"
       y="321.05859"
       ry="0" /><path
       id="path5"
       style="display:inline;fill:#000000;fill-opacity:0.801609;stroke-width:1.25398"
       d="m 1265.5898,363.89062 a 29.62627,13.142618 0 0 0 -4.1406,6.6836 29.62627,13.142618 0 0 0 29.627,13.14258 29.62627,13.142618 0 0 0 29.6269,-13.14258 29.62627,13.142618 0 0 0 -4.084,-6.65625 26.217937,11.16541 0 0 1 0.6739,2.51562 26.217937,11.16541 0 0 1 -26.2168,11.16602 26.217937,11.16541 0 0 1 -26.2188,-11.16602 26.217937,11.16541 0 0 1 0.7324,-2.54297 z m -90.3457,35.30665 a 50.139332,22.19901 0 0 0 -7.0058,11.29101 50.139332,22.19901 0 0 0 50.1406,22.19727 50.139332,22.19901 0 0 0 50.1387,-22.19727 50.139332,22.19901 0 0 0 -6.9082,-11.24609 44.37109,18.859336 0 0 1 1.1386,4.25 44.37109,18.859336 0 0 1 -44.3691,18.85937 44.37109,18.859336 0 0 1 -44.373,-18.85937 44.37109,18.859336 0 0 1 1.2382,-4.29492 z m -103.5703,59.13085 a 71.167892,30.79952 0 0 0 -9.9433,15.66407 71.167892,30.79952 0 0 0 71.1679,30.80078 71.167892,30.79952 0 0 0 71.168,-30.80078 71.167892,30.79952 0 0 0 -9.8066,-15.60157 62.980434,26.165964 0 0 1 1.6191,5.89649 62.980434,26.165964 0 0 1 -62.9805,26.16601 62.980434,26.165964 0 0 1 -62.9804,-26.16601 62.980434,26.165964 0 0 1 1.7558,-5.95899 z m -104.18552,74.48243 a 86.478052,37.497715 0 0 0 -12.08203,19.07226 86.478052,37.497715 0 0 0 86.47655,37.4961 86.478052,37.497715 0 0 0 86.4785,-37.4961 86.478052,37.497715 0 0 0 -11.916,-18.99609 76.529248,31.856466 0 0 1 1.9668,7.17969 76.529248,31.856466 0 0 1 -76.5293,31.85547 76.529248,31.856466 0 0 1 -76.52928,-31.85547 76.529248,31.856466 0 0 1 2.13476,-7.25586 z M 875.8125,724.90234 a 130.80165,59.42031 0 0 0 -18.27539,30.22266 130.80165,59.42031 0 0 0 130.80273,59.41992 130.80165,59.42031 0 0 0 130.80076,-59.41992 130.80165,59.42031 0 0 0 -18.0254,-30.09961 115.75366,50.480972 0 0 1 2.9766,11.375 115.75366,50.480972 0 0 1 -115.75196,50.48047 115.75366,50.480972 0 0 1 -115.75586,-50.48047 115.75366,50.480972 0 0 1 3.22852,-11.49805 z" /><path
       id="path30"
       style="display:inline;fill:#000000;fill-opacity:0.496222;stroke-width:1.08731"
       d="m 1291.0762,355.26758 a 26.217937,11.16541 0 0 0 -26.2188,11.16601 26.217937,11.16541 0 0 0 26.2188,11.16602 26.217937,11.16541 0 0 0 26.2168,-11.16602 26.217937,11.16541 0 0 0 -26.2168,-11.16601 z m -72.6973,29.36523 a 44.37109,18.859336 0 0 0 -44.3711,18.85938 44.37109,18.859336 0 0 0 44.3711,18.85937 44.37109,18.859336 0 0 0 44.3711,-18.85937 44.37109,18.859336 0 0 0 -44.3711,-18.85938 z m -85.4805,53.48828 a 62.980434,26.165964 0 0 0 -62.9804,26.16602 62.980434,26.165964 0 0 0 62.9804,26.16601 62.980434,26.165964 0 0 0 62.9805,-26.16601 62.980434,26.165964 0 0 0 -62.9805,-26.16602 z m -91.0156,70.08789 a 76.529248,31.856466 0 0 0 -76.52928,31.85743 76.529248,31.856466 0 0 0 76.52928,31.85547 76.529248,31.856466 0 0 0 76.5293,-31.85547 76.529248,31.856466 0 0 0 -76.5293,-31.85743 z m -40.9824,178.00782 c -1.25856,1.39866 -2.497,2.81454 -3.67188,4.28515 -2.9645,3.4352 -3.93896,7.97261 -5.28125,12.18164 -0.595,6.2077 -0.8179,12.46866 -1.8711,18.62891 -1.50837,9.02276 -4.70359,17.8467 -9.97265,25.36914 -5.44188,7.91834 -13.35974,13.87296 -21.97071,17.97852 -10.91253,5.0865 -23.01157,7.78665 -35.06836,7.34375 -8.58773,-0.3116 -17.33838,-2.73746 -24.15429,-8.13282 -4.50733,-4.03591 -7.84518,-9.25773 -10.17969,-14.81054 -3.98479,-9.55129 -4.8466,-20.11106 -4.19336,-30.35352 0.11317,-1.68386 0.26407,-3.36258 0.44727,-5.03711 a 115.75366,50.480972 0 0 0 -12.39844,22.73047 115.75366,50.480972 0 0 0 115.75195,50.48047 115.75366,50.480972 0 0 0 115.75391,-50.48047 115.75366,50.480972 0 0 0 -2.4805,-10.39648 c -7.2211,3.13284 -14.9237,5.17312 -22.8144,5.37109 -4.1453,0.20896 -8.2971,-0.44736 -12.2344,-1.73438 -8.4857,-2.51865 -16.1683,-7.62038 -21.7949,-14.45117 -5.0799,-5.89588 -8.4231,-13.57499 -8.1055,-21.44922 0.038,-1.06053 0.1472,-2.10997 0.3203,-3.14648 a 115.75366,50.480972 0 0 0 -36.082,-4.37695 z" /></g><rect
     style="opacity:1;fill:#cdde87;fill-opacity:0;stroke:none;stroke-width:1.19547"
     id="rect10"
     width="527.53723"
     height="527.53723"
     x="-3.4926313e-06"
     y="-1.1169453e-06" /><g
     id="layer2"
     transform="translate(-1274.806,-407.68365)"><path
       id="path8"
       style="display:inline;fill:#a0004a;fill-opacity:0.94902;stroke-width:1.25398"
       d="m 1715.0443,450.43664 a 29.62627,13.142618 0 0 0 -4.1406,6.6836 29.62627,13.142618 0 0 0 29.627,13.14258 29.62627,13.142618 0 0 0 29.6269,-13.14258 29.62627,13.142618 0 0 0 -4.084,-6.65625 26.217937,11.16541 0 0 1 0.6739,2.51562 26.217937,11.16541 0 0 1 -26.2168,11.16602 26.217937,11.16541 0 0 1 -26.2188,-11.16602 26.217937,11.16541 0 0 1 0.7324,-2.54297 z m -90.3457,35.30665 a 50.139332,22.19901 0 0 0 -7.0058,11.29101 50.139332,22.19901 0 0 0 50.1406,22.19727 50.139332,22.19901 0 0 0 50.1387,-22.19727 50.139332,22.19901 0 0 0 -6.9082,-11.24609 44.37109,18.859336 0 0 1 1.1386,4.25 44.37109,18.859336 0 0 1 -44.3691,18.85937 44.37109,18.859336 0 0 1 -44.373,-18.85937 44.37109,18.859336 0 0 1 1.2382,-4.29492 z m -103.5703,59.13085 a 71.167892,30.79952 0 0 0 -9.9433,15.66407 71.167892,30.79952 0 0 0 71.1679,30.80078 71.167892,30.79952 0 0 0 71.168,-30.80078 71.167892,30.79952 0 0 0 -9.8066,-15.60157 62.980434,26.165964 0 0 1 1.6191,5.89649 62.980434,26.165964 0 0 1 -62.9805,26.16601 62.980434,26.165964 0 0 1 -62.9804,-26.16601 62.980434,26.165964 0 0 1 1.7558,-5.95899 z m -104.1855,74.48243 a 86.478052,37.497715 0 0 0 -12.0821,19.07226 86.478052,37.497715 0 0 0 86.4766,37.4961 86.478052,37.497715 0 0 0 86.4785,-37.4961 86.478052,37.497715 0 0 0 -11.916,-18.99609 76.529248,31.856466 0 0 1 1.9668,7.17969 76.529248,31.856466 0 0 1 -76.5293,31.85547 76.529248,31.856466 0 0 1 -76.5293,-31.85547 76.529248,31.856466 0 0 1 2.1348,-7.25586 z m -91.6758,192.09179 a 130.80165,59.42031 0 0 0 -18.2754,30.22266 130.80165,59.42031 0 0 0 130.8027,59.41992 130.80165,59.42031 0 0 0 130.8008,-59.41992 130.80165,59.42031 0 0 0 -18.0254,-30.09961 115.75366,50.480972 0 0 1 2.9766,11.375 115.75366,50.480972 0 0 1 -115.752,50.48047 115.75366,50.480972 0 0 1 -115.7558,-50.48047 115.75366,50.480972 0 0 1 3.2285,-11.49805 z" /><path
       id="path9"
       style="display:inline;fill:#a0004a;fill-opacity:0.486275;stroke-width:1.08731"
       d="m 1740.5307,441.8136 a 26.217937,11.16541 0 0 0 -26.2188,11.16601 26.217937,11.16541 0 0 0 26.2188,11.16602 26.217937,11.16541 0 0 0 26.2168,-11.16602 26.217937,11.16541 0 0 0 -26.2168,-11.16601 z m -72.6973,29.36523 a 44.37109,18.859336 0 0 0 -44.3711,18.85938 44.37109,18.859336 0 0 0 44.3711,18.85937 44.37109,18.859336 0 0 0 44.3711,-18.85937 44.37109,18.859336 0 0 0 -44.3711,-18.85938 z m -85.4805,53.48828 a 62.980434,26.165964 0 0 0 -62.9804,26.16602 62.980434,26.165964 0 0 0 62.9804,26.16601 62.980434,26.165964 0 0 0 62.9805,-26.16601 62.980434,26.165964 0 0 0 -62.9805,-26.16602 z m -91.0156,70.08789 a 76.529248,31.856466 0 0 0 -76.5293,31.85743 76.529248,31.856466 0 0 0 76.5293,31.85547 76.529248,31.856466 0 0 0 76.5293,-31.85547 76.529248,31.856466 0 0 0 -76.5293,-31.85743 z m -40.9824,178.00782 c -1.2586,1.39866 -2.497,2.81454 -3.6719,4.28515 -2.9645,3.4352 -3.939,7.97261 -5.2812,12.18164 -0.595,6.2077 -0.8179,12.46866 -1.8711,18.62891 -1.5084,9.02276 -4.7036,17.8467 -9.9727,25.36914 -5.4419,7.91834 -13.3597,13.87296 -21.9707,17.97852 -10.9125,5.0865 -23.0116,7.78665 -35.0684,7.34375 -8.5877,-0.3116 -17.3383,-2.73746 -24.1543,-8.13282 -4.5073,-4.03591 -7.8451,-9.25773 -10.1796,-14.81054 -3.9848,-9.55129 -4.8466,-20.11106 -4.1934,-30.35352 0.1132,-1.68386 0.2641,-3.36258 0.4473,-5.03711 a 115.75366,50.480972 0 0 0 -12.3985,22.73047 115.75366,50.480972 0 0 0 115.752,50.48047 115.75366,50.480972 0 0 0 115.7539,-50.48047 115.75366,50.480972 0 0 0 -2.4805,-10.39648 c -7.2211,3.13284 -14.9237,5.17312 -22.8144,5.37109 -4.1453,0.20896 -8.2971,-0.44736 -12.2344,-1.73438 -8.4857,-2.51865 -16.1683,-7.62038 -21.7949,-14.45117 -5.0799,-5.89588 -8.4231,-13.57499 -8.1055,-21.44922 0.038,-1.06053 0.1472,-2.10997 0.3203,-3.14648 a 115.75366,50.480972 0 0 0 -36.082,-4.37695 z" /><path
       id="path10"
       d="m 1591.677,685.04792 c -2.9634,-0.75174 -6.1036,-1.02812 -9.0155,-0.85057 -2.3821,0.62792 -3.9419,1.85783 -4.8762,3.49434 -1.4785,3.38222 -1.1515,7.06778 1.5098,10.77683 1.9274,2.29004 4.1095,3.80053 7.6357,4.72063 3.0286,0.45806 5.8282,-0.10624 8.1936,-1.07963 4.0111,-2.06603 6.6626,-5.00376 7.0796,-8.64114 -0.078,-1.80678 -0.8081,-3.11449 -2.5067,-4.68778 -2.2468,-1.74724 -5.0551,-2.98045 -8.0203,-3.73268 z m -29.8997,-4.93579 c -4.2862,-1.15425 -9.0282,-1.26386 -12.8398,0.26487 l -0.7713,0.36021 c -2.5541,1.11625 -3.6401,2.56447 -4.8651,4.46979 -1.0455,2.02182 0.1146,4.60618 1.505,6.64888 3.6517,3.74742 8.0644,6.42345 14.2059,8.04181 3.161,0.65942 5.5815,0.62969 8.2559,-0.40926 3.7904,-1.94939 5.7727,-5.19884 6.1611,-8.47122 -0.2012,-3.06445 -1.5587,-5.40963 -4.6685,-7.80123 -1.9798,-1.33657 -4.4085,-2.4105 -6.9832,-3.10385 z m 51.9906,18.35505 c -2.018,-0.53721 -4.015,-0.50383 -6.0403,0.1766 -3.9231,1.70671 -5.859,4.36041 -6.3971,7.93768 0.021,1.58117 0.4198,2.55306 1.8362,3.98037 2.2503,1.94357 5.0311,2.78253 8.1488,3.23312 4.5457,0.28574 8.3516,-0.45909 11.2485,-2.5081 1.3072,-1.22144 1.4926,-2.71236 1.2226,-4.41958 -1.1171,-2.58268 -3.4902,-4.94208 -6.3403,-6.827 -1.2446,-0.72185 -2.4671,-1.25064 -3.6784,-1.57309 z m 15.3002,15.56955 c -3.0939,-0.95969 -6.0212,-0.42729 -8.4334,1.06757 l -0.7808,0.54495 c -2.3737,1.61176 -3.0354,3.49958 -3.635,6.06942 -0.085,1.82839 0.5643,2.92009 2.2141,4.55284 2.6822,1.96481 6.2241,2.60403 9.4609,3.10621 3.2561,-0.0439 6.3989,-0.21494 8.6928,-1.69355 1.38,-1.21621 1.8097,-2.52777 1.6524,-4.32667 -0.7166,-2.94095 -2.9904,-5.6426 -6.0174,-7.838 -1.0664,-0.67533 -2.1212,-1.1625 -3.1536,-1.48277 z m -48.9654,-10.00264 c -9.6609,-2.47728 -19.9696,-2.42057 -29.3687,1.55906 -11.178,5.26701 -14.2251,14.33585 -17.0659,24.39347 -1.4358,5.0901 -2.7286,12.13915 -8.0388,16.24942 l -1.3833,0.98749 c -0.5272,0.37879 -1.0404,0.74806 -1.5548,1.1176 -9.0097,6.4501 -20.9556,13.69705 -25.7329,24.12478 l -0.4272,1.12462 c -2.3902,6.24194 -1.1234,12.43179 2.2816,18.1124 5.9124,8.81466 13.8804,14.5772 25.7666,16.88214 14.8365,1.22178 27.9119,-5.37639 38.9536,-12.5434 l 1.0719,-0.69652 c 6.8084,-4.36831 12.911,-9.11256 18.812,-13.79707 0.5482,-0.43579 1.0804,-0.85825 1.6097,-1.2789 14.5138,-11.46459 30.2572,-23.7883 31.8274,-39.64734 0.2663,-6.42969 -1.5431,-13.63167 -7.1269,-19.07651 l -0.7393,-0.6972 c -0.8518,-0.89907 -1.7042,-1.7844 -2.5941,-2.65388 -7.253,-6.56707 -16.6093,-11.67755 -26.2909,-14.16016 z m 55.965,28.19751 c -1.1595,-0.33791 -2.3456,-0.55513 -3.578,-0.68619 -3.3278,0.44228 -6.2099,1.5098 -8.1289,3.61101 -0.7241,1.38416 -0.7814,2.57749 -0.057,4.26074 1.9171,2.15723 3.5587,3.46874 6.5561,4.55889 3.6773,1.1085 6.3952,1.90535 9.5803,0.85158 1.3373,-0.83319 1.6451,-1.79192 1.9352,-3.20822 0.2334,-2.78063 -0.5461,-5.38292 -2.8768,-7.97227 -1.1348,-0.61653 -2.2706,-1.07727 -3.4307,-1.41554 z m -177.6671,-46.2765 c -3.1681,-0.85188 -6.6708,-1.25635 -9.7373,-0.90651 -3.0837,0.52044 -5.2665,1.45062 -7.2926,3.10833 -4.2548,4.12968 -5.7142,8.54346 -4.4928,13.21467 1.2636,2.28581 3.6515,4.07793 7.0626,5.07402 3.1465,0.22995 5.975,-0.0641 9.0436,-0.93999 l 1.623,-0.66957 c 5.8679,-2.21695 10.3336,-5.44015 12.6795,-9.395 0.9837,-2.15976 0.4374,-4.06116 -1.1118,-5.86605 -1.7482,-1.46033 -4.6032,-2.76723 -7.7742,-3.6199 z m 28.1701,12.43845 c -2.6653,-0.65399 -5.6645,-0.90311 -8.8617,-0.73266 -4.5574,0.65692 -8.3569,1.98457 -11.6919,4.3939 -3.2954,2.85871 -5.5215,6.3468 -5.5854,9.94369 0.386,3.04229 1.5927,4.76946 5.0641,6.50496 6.3713,2.40849 14.1169,2.44509 21.3262,0.98403 4.3587,-1.16371 7.4084,-2.93807 9.6089,-5.78511 1.4944,-3.1249 1.6636,-5.67136 0.2111,-8.6311 -2.0539,-3.35392 -5.6269,-5.58717 -10.0713,-6.67771 z m -59.498,-12.39068 c -2.215,-0.68025 -4.8984,-0.82774 -7.7655,-0.45661 -4.2292,0.74353 -8.238,1.71423 -11.2727,4.01015 -1.8695,1.67361 -2.5169,3.00568 -2.3603,4.85365 0.8219,3.21707 3.1978,6.0943 7.4601,7.85332 2.9279,0.89866 5.446,1.20828 9.0041,0.42962 2.9494,-0.99652 4.7218,-2.27974 6.4489,-4.05528 2.4869,-2.98881 3.9262,-6.11217 2.8009,-9.03427 l -0.3222,-0.65605 -0.5558,-1.13208 c -0.9396,-0.80134 -2.1072,-1.40393 -3.4375,-1.81245 z m -28.9133,5.62703 c -2.3308,-0.61282 -5.2038,-0.57235 -8.3648,-0.1352 -3.6861,0.88524 -7.5967,2.05816 -10.3272,4.09651 -2.1231,1.9149 -2.848,3.25545 -2.6099,5.28301 0.8064,3.15141 3.9086,5.49093 8.1236,7.00592 3.3017,0.74245 5.8799,0.73123 9.7297,-0.25741 2.7233,-1.34929 4.0522,-2.64122 5.7217,-4.45506 2.8041,-3.58805 2.6632,-6.50182 1.302,-9.6661 -0.9667,-0.89978 -2.176,-1.50381 -3.5751,-1.87167 z m 44.6189,17.46928 c -1.9536,-0.44928 -3.8821,-0.90571 -5.9241,-1.21902 -15.0526,-1.69816 -31.4623,-0.69203 -47.4054,5.54201 -11.4244,5.18301 -19.9696,13.24659 -25.4602,21.91307 l -0.7218,1.1775 c -2.6293,4.27421 -4.7551,8.49771 -6.3952,13.00316 -8.8256,25.06781 -24.7688,70.38512 -2.7345,93.10832 8.4318,6.87067 20.4769,8.01971 34.2647,5.66295 12.0156,-2.53587 22.4018,-6.79476 31.4249,-15.49138 11.7137,-12.39879 13.4643,-27.10032 14.294,-39.13368 0.096,-1.4418 0.2002,-2.87477 0.3056,-4.29907 0.065,-0.86043 0.1296,-1.71762 0.1916,-2.57087 3.8317,-12.69818 3.8306,-12.69713 13.621,-23.48465 4.849,-5.36499 9.5193,-10.67729 13.0721,-16.09426 5.0098,-8.04518 6.1275,-15.94253 2.6836,-23.08046 l -0.9847,-1.33488 c -3.9875,-6.37179 -10.9477,-11.27955 -20.2316,-13.69874 z m -71.1698,-5.24415 c -1.2605,-0.37002 -2.7549,-0.50211 -4.5609,-0.31015 -3.7549,0.71965 -7.0466,2.33844 -9.7811,4.33858 -2.2596,1.95527 -3.866,3.27203 -3.6019,5.38183 1.012,2.3193 3.4589,3.30653 6.8367,4.22884 3.3888,0.71952 6.6751,0.79005 10.6729,-0.40473 2.4854,-1.16789 3.4824,-2.04762 4.9128,-3.6966 1.4735,-2.90266 0.5543,-5.6427 -1.3008,-7.79764 -0.8827,-0.76202 -1.9163,-1.37005 -3.1777,-1.74013 z"
       style="display:inline;fill:#a0004a;fill-opacity:1;stroke-width:0.496427" /></g></svg>
